<svg preserveAspectRatio="xMidYMid meet" xmlns="http://www.w3.org/2000/svg" xmlns:svg="http://www.w3.org/2000/svg" transform="matrix(-1,0,0,1,0,0)" viewBox="0 0 24 24" version="1.1" color="rgb(0, 0, 0)" fill="rgb(0, 0, 0)">
   <path d="m10.4,0.21c-5.14,0.73 -9.19,4.64 -10.13,9.81c-0.15,0.89 -0.17,3.04 -0.01,3.87c0.23,1.27 0.49,2.06 0.96,3.08l0.31,0.64l-0.71,3.12c-0.38,1.7 -0.69,3.12 -0.68,3.13c0.01,0.01 1.43,-0.3 3.14,-0.68l3.12,-0.7l0.58,0.27c1.53,0.74 2.88,1.06 4.66,1.11c1.21,0.04 2.11,-0.06 3.2,-0.32c4.21,-1.02 7.59,-4.38 8.67,-8.59c1.03,-4.07 -0.14,-8.35 -3.09,-11.31c-1.77,-1.78 -3.85,-2.88 -6.39,-3.35c-0.83,-0.15 -2.74,-0.19 -3.63,-0.07zm0,0" fill="currentColor"/>
</svg>